<svg xmlns="http://www.w3.org/2000/svg" viewBox="0 0 265.31 152.21"><defs><style>.cls-1{fill:#f09100;}</style></defs><g id="Ebene_2" data-name="Ebene 2"><path d="M90.3,83.73v26.78h6c16-.3,19.71-.3,26.19-.74l.88.89c-.59,7.65-.73,9.41-1,17.36l-.88.88H98c-18.4,0-22.37,0-31.64.44l-.74-.88c.3-11.63.45-19.86.45-38.85,0-21-.15-48.26-1-63.86l.73-.88c18.4,0,38,0,55.18-.29l.74.73c-.59,7.07-.59,9-.89,16.34l-.88.88h-2.65c-4.41,0-9-.15-13.39-.15h-14c0,10.45,0,13.1.15,24.43h6.33c7.65,0,12.21-.15,22.22-.44l.88.88c-.59,7.5-.59,8.53-.88,15.74l-.89.89c-7.06-.15-14.12-.15-21.18-.15Z" transform="translate(-19.28 -23.11)"/><path d="M161.51,25.46c-.44,14.42-.44,19-.44,43.55,0,8.68-.15,22.52-.15,31.2,0,4.85.15,7.5.29,10.3h4.57c15-.3,17.94-.44,24.86-.88l.88.88c-.58,7.94-.73,10.3-.88,17.66l-.88.73H152.24c-6.18.15-7.06.15-15,.3l-.88-.74c0-5.89.15-14.57.15-28.1,0-.74-.15-60.63-.59-74.46l.73-.88c11.19,0,14.27-.15,24-.44Z" transform="translate(-19.28 -23.11)"/><path d="M274.66,54.45c1.91,6.76,2.65,14.27,2.65,23a85.83,85.83,0,0,1-2.21,20.31c-5,21.48-19.13,33.1-40.61,33.1-4.86,0-20.3-.29-31.34-13.83-6.77-8.38-10.89-21.48-10.89-39.14,0-34.13,14.42-54.73,43-54.73C255.68,23.11,269.22,34,274.66,54.45Zm-23.4,8.24c-1-7.51-4.12-21.93-16.18-21.93-15.89,0-17.66,24.72-17.66,36.35,0,4.41.3,17.65,4.27,26,1,2.36,4.56,9.71,13.24,9.71a12.63,12.63,0,0,0,7.21-2.2c9.42-6.48,10-26.64,10-33.7A114,114,0,0,0,251.26,62.69Z" transform="translate(-19.28 -23.11)"/><polygon class="cls-1" points="0 1.78 46.6 1.77 0 47.93 0 1.78"/><path d="M65.82,136.73c2.38,0,6.18,0,8.52,0,2.59,0,5.22.09,7.39,1.13,5.3,2.59,5.81,9.23,5.81,13,0,4.47-.8,8.06-2.47,10.56-2.71,4.1-6.8,4.68-10.19,4.8-1.25,0-7.51.09-8.89.13l-.25-.25c0-1.88.08-4.18.08-8.52,0-6.89,0-13.78-.21-20.63Zm11.23,23.51c2.18-1.33,3.22-4.51,3.22-10,0-1.54-.08-4.84-1.67-6.76a5.41,5.41,0,0,0-4.47-1.71c-.58,0-.83,0-1.46,0,0,6.43,0,12.82.17,19.21C75,161,76.18,160.79,77.05,160.24Z" transform="translate(-19.28 -23.11)"/><path d="M97.51,166.21c-2.67,0-3.67,0-6.59.13l-.25-.25c.12-2.67.21-5.3.21-10,0-6.6-.21-8.9-.38-11.11l.21-.25c2.92-.42,3.67-.54,6.55-1.17l.25.25c0,.59,0,1.17,0,1.71,0,2.51-.08,5-.08,7.48,0,4.34.08,8.64.38,13Zm-.62-26c-2.51.29-3.26.38-5.81.84l-.25-.25c0-2.22,0-2.76-.08-5.06l.25-.25c2.88-.29,3.38-.37,5.93-.75l.25.25c0,2.38,0,3,0,5Z" transform="translate(-19.28 -23.11)"/><path d="M117.85,148.22a24.7,24.7,0,0,0-2.67-.25,5.63,5.63,0,0,1,1.75,4.26c0,2.92-2,6.59-7.56,6.59a7.83,7.83,0,0,1-1.5-.12,10.32,10.32,0,0,0-.63,1l.05.25c.75.25,4.3,1.59,5.09,1.88,3.3,1.34,5.51,2.76,5.51,6.18a7.07,7.07,0,0,1-.5,2.63,6.92,6.92,0,0,1-1.88,2.47c-2.34,2-5.47,2.17-7.35,2.17-5.26,0-8.31-2.51-8.31-5.6,0-3.38,3-4.72,3.93-5.13a13.77,13.77,0,0,1-2.26-1.38l0-.42c.42-.79.84-1.63,1.25-2.38s1-1.67,1.51-2.46a6.42,6.42,0,0,1-3.76-6.18,7.68,7.68,0,0,1,1.88-5.31c2-2.25,4.67-2.38,7.6-2.38h8.14l.21.25c-.13,1.67-.17,2.26-.21,3.64Zm-12.69,21c0,1.51,1.25,2.59,3,2.59s3-1.08,3-2.46-.75-1.92-2.63-2.76c-.21-.12-1.21-.54-1.46-.67C106.16,166.84,105.16,167.76,105.16,169.22Zm3.5-21.71c-1,0-2.13.88-2.13,4.05,0,1.67.38,3.88,2.22,3.88a1.9,1.9,0,0,0,.92-.25c1.08-.71,1.21-2.63,1.21-3.55C110.88,148.51,109.71,147.51,108.66,147.51Z" transform="translate(-19.28 -23.11)"/><path d="M127.08,166.21c-2.67,0-3.68,0-6.6.13l-.25-.25c.12-2.67.21-5.3.21-10,0-6.6-.21-8.9-.38-11.11l.21-.25c2.92-.42,3.68-.54,6.56-1.17l.25.25c0,.59,0,1.17,0,1.71-.05,2.51-.09,5-.09,7.48,0,4.34.09,8.64.38,13Zm-.63-26c-2.5.29-3.26.38-5.8.84l-.25-.25c0-2.22,0-2.76-.09-5.06l.25-.25c2.89-.29,3.39-.37,5.93-.75l.25.25c0,2.38,0,3,0,5Z" transform="translate(-19.28 -23.11)"/><path d="M140.44,148.76c-1.84,0-1.88,0-2.88,0V154c0,1.13,0,2.63,0,3.76,0,2.13,0,4.17,1.92,4.17a2.46,2.46,0,0,0,1.37-.41l.26.21c-.13,1.83-.17,2.12-.21,4.09l-.25.33a12.1,12.1,0,0,1-3.43.42c-.92,0-3.55,0-5-1.88-1-1.42-1-3.26-1-6.22v-2.51c0-1,0-6.14,0-7.3-.75,0-1.17,0-2,.08l-.21-.25c.08-1.88.08-1.88.17-4.09l.25-.25h1.87c0-.76,0-1.17,0-5.1l.21-.29c2.76-.67,3.55-.92,6-1.67l.3.21c-.09,1.84-.13,2.34-.17,7,1.5,0,1.84,0,3.05-.12l.25.25c-.13,1.92-.13,2.17-.21,4.09Z" transform="translate(-19.28 -23.11)"/><path d="M152.67,164.46a6.84,6.84,0,0,1-5,2.13c-3.14,0-5.6-2.42-5.6-6.89,0-6.3,5.51-7.72,10.44-8.64,0-1.42,0-3-3-3a9.29,9.29,0,0,0-5.34,1.67l-.29-.17c.12-1.92.16-2.46.21-4.21l.25-.34a19.43,19.43,0,0,1,7.09-1.38c1.63,0,4.93.26,6.48,2.93.83,1.63.83,3.55.83,7l0,3.3a82.24,82.24,0,0,0,.33,9.14l-.29.25c-2.8,0-3.42,0-5.84.09l-.3-.21Zm-.08-9.56c-1.75.25-4.51.71-4.51,4.09,0,1.76.92,2.88,2.26,2.88a3,3,0,0,0,2.25-1.12Z" transform="translate(-19.28 -23.11)"/><path d="M169.16,166.21c-2.75,0-3.54,0-6.47.13l-.2-.25c.08-2.59.16-5.39.16-11.32,0-3.8,0-7.68,0-11.48-.08-4.17-.21-5.59-.33-7.6l.21-.25c2.79-.46,3.79-.63,6.38-1.17l.25.25c0,2.42,0,4,0,7.44,0,1.37,0,10.77.08,16.28.09,3.67.17,5.72.26,7.72Z" transform="translate(-19.28 -23.11)"/><path d="M206.33,145.09a24,24,0,0,1,.75,6.51,24.33,24.33,0,0,1-.63,5.76c-1.42,6.1-5.43,9.4-11.52,9.4a11.18,11.18,0,0,1-8.9-3.93c-1.92-2.38-3.09-6.09-3.09-11.1,0-9.69,4.1-15.54,12.2-15.54C200.94,136.19,204.78,139.28,206.33,145.09Zm-6.64,2.33c-.29-2.13-1.17-6.22-4.6-6.22-4.51,0-5,7-5,10.32,0,1.25.09,5,1.21,7.39a4.17,4.17,0,0,0,3.76,2.75,3.58,3.58,0,0,0,2-.62c2.67-1.84,2.84-7.56,2.84-9.56A32.07,32.07,0,0,0,199.69,147.42Z" transform="translate(-19.28 -23.11)"/><path d="M220.11,148.76c-1.21,0-1.88,0-2.63,0,0,9.85.16,13.78.29,17.29l-.25.2c-3,0-3.64,0-6.39.13l-.21-.25c0-.5,0-1,0-1.55.09-2.92.09-12.15.09-15.86-.92,0-1.17,0-2.09.08l-.21-.25c.08-1.54.12-2.13.21-4.13l.25-.25a13.78,13.78,0,0,0,1.84.08c0-3.26,0-5.93,1.25-7.64,1.67-2.17,4.76-2.17,5.72-2.17a15.52,15.52,0,0,1,2.92.29l.17.25c-.17,1.84-.21,2.3-.25,4.34l-.29.25a1.92,1.92,0,0,0-2.63.59c-.51.75-.51,1.54-.51,4.13,1.3,0,1.72,0,2.93-.08l.25.25c-.17,1.84-.17,2.25-.25,4.09Z" transform="translate(-19.28 -23.11)"/><path d="M232.3,148.76c-1.21,0-1.88,0-2.63,0,0,9.85.16,13.78.29,17.29l-.25.2c-3,0-3.63,0-6.39.13l-.21-.25c0-.5,0-1,0-1.55.08-2.92.08-12.15.08-15.86-.92,0-1.17,0-2.09.08l-.21-.25c.08-1.54.13-2.13.21-4.13l.25-.25a13.78,13.78,0,0,0,1.84.08c0-3.26,0-5.93,1.25-7.64,1.67-2.17,4.76-2.17,5.72-2.17a15.52,15.52,0,0,1,2.92.29l.17.25c-.17,1.84-.21,2.3-.25,4.34l-.29.25a1.82,1.82,0,0,0-1-.29,1.88,1.88,0,0,0-1.63.88c-.5.75-.5,1.54-.5,4.13,1.29,0,1.71,0,2.92-.08l.25.25c-.17,1.84-.17,2.25-.25,4.09Z" transform="translate(-19.28 -23.11)"/><path d="M241.49,166.21c-2.68,0-3.68,0-6.6.13l-.25-.25c.12-2.67.21-5.3.21-10,0-6.6-.21-8.9-.38-11.11l.21-.25c2.92-.42,3.67-.54,6.55-1.17l.26.25c-.05.59-.05,1.17-.05,1.71,0,2.51-.08,5-.08,7.48,0,4.34.08,8.64.38,13Zm-.63-26c-2.51.29-3.26.38-5.8.84l-.26-.25c0-2.22,0-2.76-.08-5.06l.25-.25c2.88-.29,3.38-.37,5.93-.75l.25.25c0,2.38,0,3,0,5Z" transform="translate(-19.28 -23.11)"/><path d="M258.31,161.16c-.12,1.84-.16,2.59-.21,4.43l-.2.29a12.07,12.07,0,0,1-4.35.79,8.64,8.64,0,0,1-5.88-2c-3.26-2.84-3.26-7.47-3.26-8.73a15.57,15.57,0,0,1,1.88-8.26c1.75-2.93,4.51-4.06,7.76-4.06a9.28,9.28,0,0,1,4,.8l.17.29c0,.75-.13,1.5-.17,2.26s-.08,1.54-.08,2.33l-.29.13a4.18,4.18,0,0,0-2.72-1.09,3.44,3.44,0,0,0-2.84,1.51c-.62.83-1.29,2.42-1.29,5.47,0,2.79.62,6.55,4.51,6.55a4.89,4.89,0,0,0,2.71-.79Z" transform="translate(-19.28 -23.11)"/><path d="M266.41,156.49c.09,3.67,2.09,5.55,5.22,5.55a7.06,7.06,0,0,0,4.55-1.5l.3.16c-.13,1.8-.17,2.59-.21,4.35l-.17.33c-.88.75-3.51,1.34-5.93,1.34-7.18,0-10.06-4.55-10.06-11.57a18.56,18.56,0,0,1,.5-4.55c1.25-5.1,4.76-7,8.43-7a8.7,8.7,0,0,1,3.55.71c3.93,1.76,4.6,5.68,4.6,9.73,0,.8,0,1.59,0,2.18l-.3.25Zm4.64-4a12.17,12.17,0,0,0-.13-2.13c-.21-1.38-.87-2.51-2.09-2.51-.58,0-2.33.25-2.46,4.64Z" transform="translate(-19.28 -23.11)"/></g><g id="Ebene_3" data-name="Ebene 3"><path d="M284.59,30.56a7,7,0,1,1-6.87-7A7,7,0,0,1,284.59,30.56Zm-12.9,0a5.87,5.87,0,1,0,5.79-5.82A5.89,5.89,0,0,0,271.69,30.56ZM275,26.41h2.08c1.92,0,3.19.48,3.19,2.12a1.84,1.84,0,0,1-1.71,1.83v.08a1.89,1.89,0,0,1,1.12,1.16L281,34.4h-1.67L278.24,32a1.44,1.44,0,0,0-1.63-1h-.17V34.4H275Zm1.44,3.32h.36c1.28,0,2-.29,2-1s-.68-1-2-1h-.36Z" transform="translate(-19.28 -23.11)"/></g></svg>